<svg width="129" height="34" viewBox="0 0 129 34" fill="none" xmlns="http://www.w3.org/2000/svg">
<g clip-path="url(#clip0_3701_2749)">
<path d="M44.3709 11C43.6786 11 43.002 11.2053 42.4264 11.5899C41.8508 11.9744 41.4022 12.5211 41.1373 13.1606C40.8724 13.8002 40.8031 14.5039 40.9381 15.1828C41.0732 15.8618 41.4065 16.4854 41.896 16.9749C42.3855 17.4644 43.0091 17.7977 43.6881 17.9327C44.367 18.0678 45.0707 17.9985 45.7103 17.7336C46.3498 17.4687 46.8964 17.0201 47.281 16.4445C47.6656 15.8689 47.8709 15.1922 47.8709 14.5C47.8709 13.5717 47.5021 12.6815 46.8458 12.0251C46.1894 11.3688 45.2991 11 44.3709 11ZM44.3709 16C44.0742 16 43.7842 15.912 43.5375 15.7472C43.2909 15.5824 43.0986 15.3481 42.9851 15.074C42.8715 14.7999 42.8418 14.4983 42.8997 14.2074C42.9576 13.9164 43.1004 13.6491 43.3102 13.4393C43.52 13.2296 43.7873 13.0867 44.0782 13.0288C44.3692 12.9709 44.6708 13.0007 44.9449 13.1142C45.219 13.2277 45.4533 13.42 45.6181 13.6666C45.7829 13.9133 45.8709 14.2033 45.8709 14.5C45.8709 14.8978 45.7128 15.2794 45.4315 15.5607C45.1502 15.842 44.7687 16 44.3709 16ZM26.8709 14.5C26.8709 13.8078 26.6656 13.1311 26.281 12.5555C25.8964 11.9799 25.3498 11.5313 24.7103 11.2664C24.0707 11.0015 23.367 10.9322 22.6881 11.0673C22.0091 11.2023 21.3855 11.5356 20.896 12.0251C20.4065 12.5146 20.0732 13.1383 19.9381 13.8172C19.8031 14.4961 19.8724 15.1999 20.1373 15.8394C20.4022 16.4789 20.8508 17.0256 21.4264 17.4101C22.002 17.7947 22.6786 18 23.3709 18C24.2991 18 25.1894 17.6313 25.8458 16.9749C26.5021 16.3185 26.8709 15.4283 26.8709 14.5ZM23.3709 16C23.0742 16 22.7842 15.912 22.5375 15.7472C22.2909 15.5824 22.0986 15.3481 21.9851 15.074C21.8715 14.7999 21.8418 14.4983 21.8997 14.2074C21.9576 13.9164 22.1004 13.6491 22.3102 13.4393C22.52 13.2296 22.7873 13.0867 23.0782 13.0288C23.3692 12.9709 23.6708 13.0007 23.9449 13.1142C24.219 13.2277 24.4533 13.42 24.6181 13.6666C24.7829 13.9133 24.8709 14.2033 24.8709 14.5C24.8709 14.8978 24.7128 15.2794 24.4315 15.5607C24.1502 15.842 23.7687 16 23.3709 16ZM29.3709 12C30.0631 12 30.7398 11.7947 31.3154 11.4101C31.891 11.0256 32.3396 10.4789 32.6045 9.83939C32.8694 9.19985 32.9387 8.49612 32.8036 7.81719C32.6686 7.13825 32.3352 6.51461 31.8458 6.02513C31.3563 5.53564 30.7326 5.2023 30.0537 5.06725C29.3748 4.9322 28.671 5.00152 28.0315 5.26642C27.3919 5.53133 26.8453 5.97993 26.4607 6.55551C26.0762 7.13108 25.8709 7.80777 25.8709 8.5C25.8709 9.42826 26.2396 10.3185 26.896 10.9749C27.5524 11.6313 28.4426 12 29.3709 12ZM29.3709 7C29.6676 7 29.9576 7.08798 30.2042 7.2528C30.4509 7.41762 30.6432 7.65189 30.7567 7.92598C30.8702 8.20007 30.8999 8.50167 30.8421 8.79264C30.7842 9.08361 30.6413 9.35088 30.4315 9.56066C30.2218 9.77044 29.9545 9.9133 29.6635 9.97118C29.3725 10.0291 29.0709 9.99935 28.7969 9.88582C28.5228 9.77229 28.2885 9.58003 28.1237 9.33336C27.9589 9.08668 27.8709 8.79667 27.8709 8.5C27.8709 8.10218 28.0289 7.72065 28.3102 7.43934C28.5915 7.15804 28.9731 7 29.3709 7ZM38.3709 12C39.0631 12 39.7398 11.7947 40.3154 11.4101C40.8909 11.0256 41.3396 10.4789 41.6045 9.83939C41.8694 9.19985 41.9387 8.49612 41.8036 7.81719C41.6686 7.13825 41.3352 6.51461 40.8458 6.02513C40.3563 5.53564 39.7326 5.2023 39.0537 5.06725C38.3748 4.9322 37.671 5.00152 37.0315 5.26642C36.3919 5.53133 35.8453 5.97993 35.4607 6.55551C35.0762 7.13108 34.8709 7.80777 34.8709 8.5C34.8709 9.42826 35.2396 10.3185 35.896 10.9749C36.5524 11.6313 37.4426 12 38.3709 12ZM38.3709 7C38.6676 7 38.9576 7.08798 39.2042 7.2528C39.4509 7.41762 39.6432 7.65189 39.7567 7.92598C39.8702 8.20007 39.8999 8.50167 39.8421 8.79264C39.7842 9.08361 39.6413 9.35088 39.4315 9.56066C39.2218 9.77044 38.9545 9.9133 38.6635 9.97118C38.3725 10.0291 38.0709 9.99935 37.7969 9.88582C37.5228 9.77229 37.2885 9.58003 37.1237 9.33336C36.9589 9.08668 36.8709 8.79667 36.8709 8.5C36.8709 8.10218 37.0289 7.72065 37.3102 7.43934C37.5915 7.15804 37.9731 7 38.3709 7ZM41.2609 19.6075C40.7529 19.3273 40.3052 18.9497 39.9434 18.4962C39.5815 18.0428 39.3127 17.5225 39.1521 16.965C38.8196 15.8216 38.125 14.8169 37.1727 14.102C36.2203 13.3872 35.0617 13.0007 33.8709 13.0007C32.6801 13.0007 31.5214 13.3872 30.5691 14.102C29.6167 14.8169 28.9221 15.8216 28.5896 16.965C28.2684 18.0867 27.5155 19.0352 26.4959 19.6025C25.5178 20.1318 24.744 20.972 24.297 21.9903C23.85 23.0086 23.7553 24.1469 24.0278 25.2251C24.3003 26.3033 24.9245 27.2599 25.8016 27.9436C26.6787 28.6273 27.7588 28.999 28.8709 29C29.5373 29.0019 30.1973 28.8688 30.8109 28.6088C32.7672 27.8019 34.9633 27.8019 36.9196 28.6088C38.1046 29.1241 39.443 29.1607 40.6544 28.7109C41.8657 28.2611 42.8559 27.3598 43.4172 26.1959C43.9786 25.0321 44.0677 23.6961 43.6657 22.4681C43.2636 21.24 42.4018 20.2153 41.2609 19.6088V19.6075ZM38.8709 27C38.4649 27.0003 38.063 26.9183 37.6896 26.7588C35.2404 25.7471 32.4901 25.7471 30.0409 26.7588C29.3291 27.0652 28.5264 27.0844 27.8008 26.8122C27.0753 26.54 26.4832 25.9977 26.1486 25.2987C25.814 24.5998 25.7628 23.7984 26.0058 23.0626C26.2488 22.3268 26.7671 21.7135 27.4521 21.3513C28.1887 20.9445 28.8378 20.3965 29.3625 19.7387C29.8871 19.0809 30.2769 18.3261 30.5096 17.5175C30.721 16.7895 31.1629 16.1498 31.7691 15.6945C32.3753 15.2393 33.1128 14.9932 33.8709 14.9932C34.6289 14.9932 35.3665 15.2393 35.9727 15.6945C36.5788 16.1498 37.0208 16.7895 37.2321 17.5175C37.4656 18.3276 37.8566 19.0837 38.3828 19.7424C38.909 20.4011 39.5599 20.9495 40.2984 21.3563C40.8882 21.6726 41.3553 22.177 41.6253 22.7894C41.8954 23.4017 41.953 24.0868 41.7889 24.7357C41.6248 25.3845 41.2484 25.9598 40.7197 26.3701C40.1909 26.7804 39.5401 27.0021 38.8709 27Z" fill="#FCFCFC"/>
<path d="M50.6809 2.54495H53.7409L57.3769 10.339L61.0309 2.54495H64.0729V15.127H61.1029V8.80895L58.0969 15.127H56.6569L53.6689 8.80895V15.127H50.6809V2.54495ZM69.1666 15.397C67.9786 15.397 67.0846 15.067 66.4846 14.407C65.8966 13.747 65.6026 12.877 65.6026 11.797V6.48695H68.7706V11.437C68.7706 12.433 69.2206 12.931 70.1206 12.931C70.5286 12.931 70.9006 12.835 71.2366 12.643C71.5726 12.451 71.8486 12.169 72.0646 11.797V6.48695H75.2326V15.127H72.1726V14.191C71.8006 14.587 71.3506 14.887 70.8226 15.091C70.2946 15.295 69.7426 15.397 69.1666 15.397ZM76.8547 6.48695H79.9147V7.44095C80.2867 7.03295 80.7367 6.72695 81.2647 6.52295C81.7927 6.31895 82.3447 6.21695 82.9207 6.21695C84.1327 6.21695 85.0267 6.53495 85.6027 7.17095C86.1907 7.79495 86.4847 8.64695 86.4847 9.72695V15.127H83.3167V10.141C83.3167 9.16895 82.8727 8.68295 81.9847 8.68295C81.5767 8.68295 81.2047 8.77895 80.8687 8.97095C80.5327 9.15095 80.2507 9.43295 80.0227 9.81695V15.127H76.8547V6.48695ZM92.2468 15.397C91.3468 15.397 90.5488 15.211 89.8528 14.839C89.1568 14.455 88.6168 13.921 88.2328 13.237C87.8488 12.541 87.6568 11.737 87.6568 10.825C87.6568 9.92495 87.8488 9.12695 88.2328 8.43095C88.6168 7.72295 89.1508 7.17695 89.8348 6.79295C90.5308 6.40895 91.3348 6.21695 92.2468 6.21695C92.8468 6.21695 93.3988 6.30095 93.9028 6.46895C94.4068 6.63695 94.8388 6.87695 95.1988 7.18895V1.82495H98.3668V15.127H95.3068V14.263C94.5028 15.019 93.4828 15.397 92.2468 15.397ZM93.0748 12.949C93.5548 12.949 93.9868 12.829 94.3708 12.589C94.7548 12.337 95.0308 12.001 95.1988 11.581V10.051C95.0308 9.63095 94.7548 9.30095 94.3708 9.06095C93.9868 8.80895 93.5548 8.68295 93.0748 8.68295C92.4268 8.68295 91.9048 8.87495 91.5088 9.25895C91.1128 9.64295 90.9148 10.165 90.9148 10.825C90.9148 11.485 91.1128 12.007 91.5088 12.391C91.9048 12.763 92.4268 12.949 93.0748 12.949ZM104.692 15.397C103.624 15.397 102.688 15.205 101.884 14.821C101.08 14.425 100.456 13.885 100.012 13.201C99.5798 12.505 99.3638 11.707 99.3638 10.807C99.3638 9.90695 99.5798 9.11495 100.012 8.43095C100.456 7.73495 101.08 7.19495 101.884 6.81095C102.688 6.41495 103.624 6.21695 104.692 6.21695C105.76 6.21695 106.696 6.41495 107.5 6.81095C108.304 7.19495 108.922 7.73495 109.354 8.43095C109.798 9.11495 110.02 9.90695 110.02 10.807C110.02 11.707 109.798 12.505 109.354 13.201C108.922 13.885 108.304 14.425 107.5 14.821C106.696 15.205 105.76 15.397 104.692 15.397ZM104.692 12.931C105.328 12.931 105.832 12.745 106.204 12.373C106.588 11.989 106.78 11.467 106.78 10.807C106.78 10.147 106.588 9.63095 106.204 9.25895C105.832 8.87495 105.328 8.68295 104.692 8.68295C104.056 8.68295 103.546 8.87495 103.162 9.25895C102.79 9.63095 102.604 10.147 102.604 10.807C102.604 11.467 102.79 11.989 103.162 12.373C103.546 12.745 104.056 12.931 104.692 12.931Z" fill="white"/>
<path d="M50.6809 17.545H56.2249C57.6889 17.545 58.8589 17.929 59.7349 18.697C60.6109 19.465 61.0489 20.539 61.0489 21.919C61.0489 23.335 60.6109 24.433 59.7349 25.213C58.8709 25.981 57.7009 26.365 56.2249 26.365H53.8669V30.127H50.6809V17.545ZM55.7209 23.683C56.3569 23.683 56.8549 23.551 57.2149 23.287C57.5869 23.023 57.7729 22.567 57.7729 21.919C57.7729 21.271 57.5929 20.827 57.2329 20.587C56.8729 20.347 56.3689 20.227 55.7209 20.227H53.8669V23.683H55.7209ZM67.2002 30.397C65.5082 30.397 64.1762 30.001 63.2042 29.209C62.2442 28.417 61.7642 27.295 61.7642 25.843C61.7642 24.415 62.1902 23.287 63.0422 22.459C63.9062 21.631 65.1482 21.217 66.7682 21.217C67.8002 21.217 68.6822 21.415 69.4142 21.811C70.1582 22.195 70.7162 22.729 71.0882 23.413C71.4722 24.085 71.6642 24.847 71.6642 25.699V26.869H64.7702C64.8902 27.349 65.1902 27.697 65.6702 27.913C66.1502 28.129 66.8042 28.237 67.6322 28.237C68.1962 28.237 68.7722 28.189 69.3602 28.093C69.9602 27.997 70.4762 27.865 70.9082 27.697V29.785C70.4642 29.965 69.9062 30.109 69.2342 30.217C68.5742 30.337 67.8962 30.397 67.2002 30.397ZM68.6762 24.889C68.6282 24.421 68.4362 24.055 68.1002 23.791C67.7642 23.527 67.3022 23.395 66.7142 23.395C66.1382 23.395 65.6822 23.533 65.3462 23.809C65.0102 24.073 64.8182 24.433 64.7702 24.889H68.6762ZM76.6612 30.397C75.5932 30.397 74.7832 30.103 74.2312 29.515C73.6912 28.915 73.4212 28.099 73.4212 27.067V23.683H72.1972V21.487H73.4212V18.895H76.5892V21.487H78.5692V23.683H76.5892V26.635C76.5892 27.103 76.6732 27.439 76.8412 27.643C77.0212 27.847 77.3332 27.949 77.7772 27.949C78.1732 27.949 78.5692 27.841 78.9652 27.625V29.983C78.6532 30.127 78.3172 30.229 77.9572 30.289C77.6092 30.361 77.1772 30.397 76.6612 30.397Z" fill="#FD7BF0"/>
</g>
<defs>
<clipPath id="clip0_3701_2749">
<rect width="127.258" height="34" fill="white" transform="translate(0.87088)"/>
</clipPath>
</defs>
</svg>
