<svg width="33" height="32" viewBox="0 0 33 32" fill="none" xmlns="http://www.w3.org/2000/svg">
<path d="M12.5 17.5001C12.5 17.7967 12.412 18.0867 12.2472 18.3334C12.0824 18.5801 11.8481 18.7723 11.574 18.8859C11.2999 18.9994 10.9983 19.0291 10.7074 18.9712C10.4164 18.9134 10.1491 18.7705 9.93934 18.5607C9.72956 18.3509 9.5867 18.0837 9.52882 17.7927C9.47094 17.5017 9.50065 17.2001 9.61418 16.926C9.72771 16.6519 9.91997 16.4177 10.1666 16.2528C10.4133 16.088 10.7033 16.0001 11 16.0001C11.3978 16.0001 11.7794 16.1581 12.0607 16.4394C12.342 16.7207 12.5 17.1022 12.5 17.5001ZM22 16.0001C21.7033 16.0001 21.4133 16.088 21.1666 16.2528C20.92 16.4177 20.7277 16.6519 20.6142 16.926C20.5007 17.2001 20.4709 17.5017 20.5288 17.7927C20.5867 18.0837 20.7296 18.3509 20.9393 18.5607C21.1491 18.7705 21.4164 18.9134 21.7074 18.9712C21.9983 19.0291 22.2999 18.9994 22.574 18.8859C22.8481 18.7723 23.0824 18.5801 23.2472 18.3334C23.412 18.0867 23.5 17.7967 23.5 17.5001C23.5 17.1022 23.342 16.7207 23.0607 16.4394C22.7794 16.1581 22.3978 16.0001 22 16.0001ZM29.5 6.00005V17.0001C29.5 23.6163 23.6688 29.0001 16.5 29.0001C9.33125 29.0001 3.5 23.6163 3.5 17.0001V6.00005C3.50018 5.60462 3.61758 5.21812 3.83736 4.8894C4.05713 4.56067 4.36942 4.30447 4.73476 4.15317C5.1001 4.00187 5.50209 3.96226 5.88993 4.03936C6.27777 4.11645 6.63405 4.30678 6.91375 4.5863C6.93125 4.6038 6.94625 4.62005 6.96125 4.63755L9.125 7.12505C11.3374 5.7389 13.8955 5.00375 16.5063 5.00375C19.117 5.00375 21.6751 5.7389 23.8875 7.12505L26.0387 4.63755C26.0537 4.62005 26.0688 4.6038 26.0863 4.5863C26.366 4.30678 26.7222 4.11645 27.1101 4.03936C27.4979 3.96226 27.8999 4.00187 28.2652 4.15317C28.6306 4.30447 28.9429 4.56067 29.1626 4.8894C29.3824 5.21812 29.4998 5.60462 29.5 6.00005ZM27.5 6.00005L24.805 9.10005C24.6401 9.29077 24.4093 9.41219 24.1588 9.44C23.9082 9.46782 23.6564 9.39997 23.4538 9.25005C22.8437 8.79892 22.189 8.41148 21.5 8.0938V11.0001C21.5 11.2653 21.3946 11.5196 21.2071 11.7072C21.0196 11.8947 20.7652 12.0001 20.5 12.0001C20.2348 12.0001 19.9804 11.8947 19.7929 11.7072C19.6054 11.5196 19.5 11.2653 19.5 11.0001V7.3813C18.8439 7.21254 18.175 7.09881 17.5 7.0413V11.0001C17.5 11.2653 17.3946 11.5196 17.2071 11.7072C17.0196 11.8947 16.7652 12.0001 16.5 12.0001C16.2348 12.0001 15.9804 11.8947 15.7929 11.7072C15.6054 11.5196 15.5 11.2653 15.5 11.0001V7.0413C14.825 7.09881 14.1561 7.21254 13.5 7.3813V11.0001C13.5 11.2653 13.3946 11.5196 13.2071 11.7072C13.0196 11.8947 12.7652 12.0001 12.5 12.0001C12.2348 12.0001 11.9804 11.8947 11.7929 11.7072C11.6054 11.5196 11.5 11.2653 11.5 11.0001V8.0938C10.811 8.41148 10.1563 8.79892 9.54625 9.25005C9.34403 9.40041 9.09249 9.46888 8.84196 9.44177C8.59143 9.41465 8.36037 9.29395 8.195 9.1038L5.5 6.00005V17.0001C5.5 22.2076 9.90125 26.5001 15.5 26.9588V24.4138L13.7925 22.7063C13.6997 22.6134 13.6261 22.5031 13.5758 22.3817C13.5256 22.2604 13.4998 22.1303 13.4999 21.999C13.4999 21.8676 13.5259 21.7376 13.5762 21.6163C13.6265 21.495 13.7002 21.3848 13.7931 21.2919C13.9808 21.1045 14.2352 20.9992 14.5004 20.9993C14.6318 20.9994 14.7618 21.0253 14.8831 21.0756C15.0045 21.1259 15.1147 21.1996 15.2075 21.2926L16.5 22.5851L17.7925 21.2926C17.8853 21.1996 17.9955 21.1259 18.1169 21.0756C18.2382 21.0253 18.3682 20.9994 18.4996 20.9993C18.6309 20.9993 18.761 21.0251 18.8823 21.0753C19.0037 21.1255 19.114 21.1991 19.2069 21.2919C19.2998 21.3848 19.3735 21.495 19.4238 21.6163C19.4741 21.7376 19.5001 21.8676 19.5001 21.999C19.5002 22.1303 19.4744 22.2604 19.4242 22.3817C19.3739 22.5031 19.3003 22.6134 19.2075 22.7063L17.5 24.4138V26.9588C23.0988 26.4976 27.5 22.2088 27.5 17.0001V6.00005Z" fill="#CCCCCC"/>
</svg>
